<?xml version="1.0" encoding="UTF-8" standalone="no"?>
<!-- Created with Inkscape (http://www.inkscape.org/) -->

<svg
   width="180mm"
   height="180mm"
   viewBox="0 0 180 180"
   version="1.1"
   id="svg1"
   xml:space="preserve"
   xmlns="http://www.w3.org/2000/svg"
   xmlns:svg="http://www.w3.org/2000/svg"><defs
     id="defs1" /><g
     id="layer1"
     style="display:inline"
     transform="translate(-14.216043,-56.479949)"><path
       style="display:inline;fill:#e0b544;fill-opacity:1;stroke-width:0.264583"
       d="m 40.752402,91.081618 c 0.339604,-3.9394 3.260191,-4.686525 3.260191,-4.686525 L 103.30734,62.826619 c 0,0 2.71683,-0.679207 4.14316,0.06792 1.42633,0.747128 59.43059,23.908075 59.43059,23.908075 0,0 2.24138,0.679207 2.51306,4.414845 0.27168,3.735637 0.20376,74.984421 0.20376,74.984421 -3.80356,39.12231 -62.48701,61.19652 -62.48701,61.19652 0,0 -1.69802,0.95089 -3.39604,0.33961 -1.69801,-0.61129 -59.430582,-23.2968 -63.23414,-61.06069 z"
       id="path1" /><path
       style="display:inline;fill:#ffce4a;fill-opacity:1;stroke-width:0.210938"
       d="m 53.482888,101.57971 c 0.272907,-3.115804 2.619933,-3.706721 2.619933,-3.706721 L 103.75288,79.231911 c 0,0 2.18329,-0.537209 3.3295,0.05372 1.14624,0.590929 47.75925,18.909683 47.75925,18.909683 0,0 1.80119,0.537199 2.01952,3.491846 0.21832,2.95463 0.16375,59.3076 0.16375,59.3076 -3.0566,30.9431 -50.21542,48.40232 -50.21542,48.40232 0,0 -1.36455,0.75209 -2.7291,0.26861 -1.36455,-0.48349 -47.759226,-18.4262 -50.815818,-48.29489 z"
       id="path1-7" /></g><g
     id="layer2"
     style="display:inline"
     transform="translate(-14.216043,-56.479949)"><g
       id="g7"
       style="display:inline"
       transform="matrix(0.88797197,0,0,0.88797197,9.9044942,20.886122)"><path
         style="display:inline;fill:#949494;fill-opacity:1;stroke-width:0.264583"
         d="M 94.229299,107.77296 65.538188,78.352202 c -2.784747,-2.716827 -5.604112,-2.051274 -6.758763,1.582482 l -3.559837,21.786856 c -4.414844,26.82867 3.133661,33.93614 7.888108,36.78881 z"
         id="path7" /><path
         style="display:inline;fill:#a1a1a1;fill-opacity:1;stroke-width:0.19416"
         d="M 88.821147,110.05027 67.253389,87.697899 c -1.916221,-2.126195 -3.856262,-1.605332 -4.650794,1.238453 l -2.449568,17.050438 c -3.037912,20.99618 2.156313,26.55849 5.42791,28.791 z"
         id="path7-1" /><path
         style="display:inline;fill:#949494;fill-opacity:1;stroke-width:0.264583"
         d="m 120.42871,107.77331 28.6911,-29.420763 c 2.78475,-2.716827 5.60412,-2.051274 6.75877,1.582482 l 3.55984,21.786861 c 4.41484,26.82867 -3.13367,33.93614 -7.88811,36.78881 z"
         id="path7-7" /><path
         style="display:inline;fill:#a1a1a1;fill-opacity:1;stroke-width:0.19416"
         d="m 126.11836,110.05005 21.56777,-22.352371 c 1.91622,-2.126195 3.85627,-1.605332 4.6508,1.238453 l 2.44957,17.050438 c 3.03791,20.99618 -2.15632,26.55849 -5.42791,28.791 z"
         id="path7-1-1" /></g><path
       style="display:inline;fill:#c4c4c4;fill-opacity:1;stroke-width:0.234942"
       d="m 65.240433,154.50659 3.063405,22.28818 c 0,0 2.360814,10.43999 11.743106,11.33557 h 50.842726 c 7.90082,-1.14592 10.97672,-10.55454 10.97672,-10.55454 1.79117,-4.69115 3.43777,-22.67718 3.43777,-22.67718 0,0 -0.01,-8.85243 -0.0439,-8.4266 -9.04614,-47.642913 -76.612213,-36.80715 -80.110289,0.34484 z"
       id="path3" /><g
       id="g2"
       style="display:inline"
       transform="matrix(0.88797197,0,0,0.88797197,9.9044942,20.886122)"><path
         style="display:inline;fill:#e4e6e5;fill-opacity:1;stroke-width:0.264583"
         d="m 89.810801,123.0456 34.675609,0.0961 c 22.95699,1.92109 23.12679,29.83894 23.12679,29.83894 -0.13584,6.5883 -5.35673,7.04593 -5.35673,7.04593 l -67.910417,0.19211 c 0,0 -7.300129,-0.21613 -7.059994,-7.06 0,0 -0.240135,-26.46302 22.524742,-30.11308 z"
         id="path6" /><ellipse
         style="display:inline;fill:#68c0f0;fill-opacity:1;stroke-width:0.295829"
         id="path2-4"
         cx="125.33006"
         cy="142.4476"
         rx="13.495632"
         ry="13.447606" /><ellipse
         style="display:inline;fill:#68c0f0;fill-opacity:1;stroke-width:0.295829"
         id="path2"
         cx="89.474609"
         cy="142.4476"
         rx="13.495632"
         ry="13.447606" /></g><g
       id="g4"
       style="display:inline"
       transform="matrix(0.88797197,0,0,0.88797197,9.9044942,20.886122)"><ellipse
         style="fill:#7f7f7f;fill-opacity:1;stroke-width:0.33166"
         id="path4"
         cx="94.469444"
         cy="177.67651"
         rx="4.5145535"
         ry="4.394486" /><ellipse
         style="display:inline;fill:#7f7f7f;fill-opacity:1;stroke-width:0.33166"
         id="path4-1"
         cx="120.38831"
         cy="177.677"
         rx="4.5145535"
         ry="4.394486" /><ellipse
         style="display:inline;fill:#7f7f7f;fill-opacity:1;stroke-width:0.346331"
         id="path4-6"
         cx="107.40984"
         cy="177.677"
         rx="4.9227843"
         ry="4.394486" /><path
         style="display:inline;fill:#7f7f7f;fill-opacity:1;stroke-width:0.264583"
         d="m 103.85875,163.10026 7.03598,-0.048 c 1.20068,0.19211 1.82931,0.97304 2.01714,1.80102 0.11134,0.85454 -0.1698,1.53687 -0.1698,1.53687 -1.24942,2.18815 -2.06346,2.8336 -4.05659,3.84217 -0.64837,0.26415 -1.68096,0.24015 -2.44939,-0.024 -1.87306,-0.57633 -3.96649,-3.02571 -4.20663,-3.77013 -0.134,-0.14009 -0.0918,-1.53687 -0.0918,-1.53687 0.31217,-1.12864 0.96056,-1.56088 1.9211,-1.80102 z"
         id="path5" /></g><g
       id="g10"
       transform="matrix(0.97641141,0,0,0.97641141,-0.22009801,5.4528724)"><rect
         style="display:inline;fill:#858585;fill-opacity:1;stroke-width:0.292462"
         id="rect8-4-3-2"
         width="40.818703"
         height="3.3569827"
         x="-112.21745"
         y="-199.11305"
         rx="0"
         ry="1.6784914"
         transform="matrix(-0.94742494,0.31997811,-0.32109625,-0.94704657,0,0)" /><rect
         style="display:inline;fill:#858585;fill-opacity:1;stroke-width:0.292462"
         id="rect8"
         width="40.818703"
         height="3.3569827"
         x="41.400051"
         y="169.7231"
         rx="0"
         ry="1.6784914"
         transform="matrix(0.99991561,-0.01299094,0.01417126,0.99989957,0,0)" /><rect
         style="display:inline;fill:#858585;fill-opacity:1;stroke-width:0.292462"
         id="rect8-4-0"
         width="40.818703"
         height="3.3569827"
         x="-220.28613"
         y="123.15147"
         rx="0"
         ry="1.6784914"
         transform="matrix(-0.94742495,-0.31997811,-0.32109624,0.94704657,0,0)" /><rect
         style="display:inline;fill:#858585;fill-opacity:1;stroke-width:0.292462"
         id="rect8-5"
         width="40.818703"
         height="3.3569827"
         x="-173.59453"
         y="166.91202"
         rx="0"
         ry="1.6784914"
         transform="matrix(-0.99991561,-0.01299094,-0.01417126,0.99989957,0,0)" /><rect
         style="display:inline;fill:#858585;fill-opacity:1;stroke-width:0.292462"
         id="rect8-4-3"
         width="40.818703"
         height="3.3569827"
         x="91.418831"
         y="-130.32938"
         rx="0"
         ry="1.6784914"
         transform="matrix(0.94742495,0.31997811,0.32109624,-0.94704657,0,0)" /><rect
         style="display:inline;fill:#858585;fill-opacity:1;stroke-width:0.292462"
         id="rect8-4"
         width="40.818703"
         height="3.3569827"
         x="-16.661278"
         y="191.96889"
         rx="0"
         ry="1.6784914"
         transform="matrix(0.94742495,-0.31997811,0.32109624,0.94704657,0,0)" /></g></g></svg>
